<svg width="101.000000" height="41.000000" viewBox="0 0 101 41" fill="none" xmlns="http://www.w3.org/2000/svg" xmlns:xlink="http://www.w3.org/1999/xlink">
	<desc>
			Created with Pixso.
	</desc>
	<defs>
		<clipPath id="clip25_239">
			<rect id="Логотип 66бит 1" width="101.000000" height="41.000000" fill="white" fill-opacity="0"/>
		</clipPath>
	</defs>
	<rect id="Логотип 66бит 1" width="101.000000" height="41.000000" fill="#FFFFFF" fill-opacity="0"/>
	<g clip-path="url(#clip25_239)">
		<path id="Vector" d="M67.9126 35.3013C66.3193 36.4634 64.3877 37.0692 62.4155 37.0254C59.3486 37.0254 56.3608 36.2368 54.751 35.196C54.9717 34.5181 55.3452 33.2145 55.498 32.468L59.0908 15.616C59.3887 14.3389 59.5649 13.0365 59.6167 11.7262C59.626 11.2367 59.5767 10.7479 59.4697 10.2703L64.688 8.66174C64.8022 9.18994 64.8521 9.7301 64.835 10.2703C64.8169 11.4374 64.6919 12.6003 64.4619 13.7448L63.8252 16.7723C63.6499 17.6466 63.4126 18.5073 63.1152 19.348C63.7676 18.5918 64.5747 17.9838 65.4824 17.5649C66.3896 17.1461 67.376 16.926 68.3755 16.9196C71.9316 16.9196 73.499 19.4269 73.499 23.5742C73.499 28.2787 71.5161 32.7677 67.9282 35.3013L67.9126 35.3013ZM66.5288 20.9933C64.998 20.9933 63.3726 22.2654 62.3784 23.9841L60.5112 32.4995C61.2446 33.0879 62.1709 33.3822 63.1099 33.3248C64.1934 33.3248 65.54 32.3156 66.2661 31.0856C67.3179 29.2144 68.0601 24.9934 68.0601 23.4954C68.0601 21.8553 67.5757 20.9933 66.5659 20.9933L66.5288 20.9933ZM83.2466 15.2428C82.4287 15.2372 81.646 14.9075 81.0713 14.326C80.4961 13.7446 80.1758 12.9589 80.1797 12.1415C80.1831 11.731 80.2676 11.3252 80.4282 10.9474C80.5889 10.5696 80.8223 10.2271 81.1152 9.93945C81.4087 9.65186 81.7559 9.42493 82.1367 9.27148C82.5176 9.11816 82.9253 9.04126 83.3359 9.04541C83.7388 9.04883 84.1367 9.13184 84.5073 9.28943C84.8779 9.44714 85.2134 9.67639 85.4951 9.96411C85.7769 10.2518 85.9985 10.5923 86.1479 10.9659C86.2974 11.3396 86.3716 11.7391 86.3662 12.1415C86.3667 12.549 86.2871 12.9525 86.1313 13.3291C85.9756 13.7057 85.7471 14.0479 85.4585 14.3359C85.1704 14.6241 84.8276 14.8525 84.4512 15.0081C84.0742 15.1637 83.6704 15.2434 83.2622 15.2428L83.2466 15.2428ZM80.5532 36.5417L75.5454 36.5417L79.5435 17.7501L84.7036 16.9617L80.5532 36.5417ZM99.4067 17.4084L97.6128 20.8461L94.2832 20.8461L92.2632 30.4496C92.1387 30.9998 92.0771 31.5623 92.0791 32.1263C92.0791 33.1776 92.6367 33.514 93.7568 33.514C94.397 33.4868 95.0293 33.3591 95.6299 33.1356L95.6299 36.1633C94.269 36.6924 92.8232 36.9702 91.3633 36.9833C88.4858 36.9833 86.8394 35.5641 86.8394 33.698C86.8447 32.8695 86.9326 32.0437 87.1025 31.2328L89.3066 20.8461L87.4023 20.8461L88.1494 17.4084L90.0591 17.4084C90.3174 15.8718 90.7046 14.3597 91.2163 12.8879L96.4766 11.6158C95.9189 13.3715 95.356 15.4635 94.9458 17.3979L99.4067 17.4084Z" fill="#155DA4" fill-opacity="1.000000" fill-rule="nonzero"/>
		<path id="Vector" d="M28.9199 3.70801C19.9946 7.89429 15.7251 12.8979 13.3164 17.3777C13.2642 17.5453 13.3687 17.7654 13.4829 17.6501C16.0532 16.225 18.4619 15.5072 20.104 15.5072C23.9932 15.4862 27.46 18.9495 27.4966 24.1888C27.4966 29.6327 24.8901 34.0914 19.9424 36.5696C18.1152 37.4672 16.1157 37.9552 14.0825 38C7.01855 37.9948 4 32.9335 4 27.3745C4 15.7063 15.2871 5.74622 28.3203 2.00525C28.5913 2.10999 29.1387 3.48804 28.9199 3.70801ZM11.7261 21.0453C10.9688 23.145 10.5786 25.361 10.5742 27.5945C10.5742 33.0959 12.6021 35.7156 15.6152 35.7156C18.8999 35.7156 21.2041 31.1154 21.2041 26.2847C21.1519 21.2758 19.1812 18.9076 15.897 18.9076C14.7988 18.9418 13.7251 19.2439 12.769 19.7878C12.3105 20.1044 11.9492 20.5436 11.7261 21.0558L11.7261 21.0453ZM53.9546 3.70801C45.0239 7.88904 40.749 12.8979 38.3403 17.3777C38.2886 17.54 38.3926 17.7601 38.5073 17.6501C41.0776 16.2197 43.4863 15.502 45.1284 15.502C49.0176 15.481 52.4844 18.9495 52.521 24.1888C52.521 29.6379 49.9141 34.0966 44.9668 36.5748C43.1392 37.4706 41.1396 37.9568 39.1069 38C32.043 37.9895 29.0244 32.9282 29.0244 27.3745C29.0244 15.701 40.311 5.74097 53.3447 2C53.6211 2.10999 54.1685 3.48804 53.9492 3.70801L53.9546 3.70801ZM36.7559 21.0453C35.9951 23.1443 35.605 25.3606 35.6035 27.5945C35.6035 33.0959 37.6313 35.7156 40.6396 35.7156C43.9238 35.7156 46.2285 31.1154 46.2285 26.2847C46.1709 21.281 44.2002 18.9128 40.916 18.9128C39.8179 18.947 38.7441 19.2491 37.7881 19.793C37.3276 20.1078 36.9663 20.5475 36.7451 21.0609L36.7559 21.0453Z" fill="#155DA4" fill-opacity="1.000000" fill-rule="nonzero"/>
	</g>
</svg>
