<svg width="14" height="14" viewBox="0 0 14 14" fill="none" xmlns="http://www.w3.org/2000/svg">
    <path
            d="M0.491334 8.44506C0.55948 8.37677 0.644935 8.32833 0.738528 8.30493C0.832121 8.28153 0.93032 8.28406 1.02258 8.31224C2.03556 8.61848 3.11265 8.64416 4.13907 8.38654C5.16549 8.12892 6.10279 7.59765 6.85109 6.84935C7.5994 6.10105 8.13066 5.16375 8.38828 4.13733C8.64591 3.1109 8.62023 2.03382 8.31399 1.02084C8.28557 0.928535 8.28285 0.83023 8.30612 0.736496C8.32939 0.642761 8.37777 0.557144 8.44607 0.488852C8.51436 0.420559 8.59997 0.372176 8.69371 0.348904C8.78744 0.325633 8.88575 0.328355 8.97805 0.356776C10.3785 0.78579 11.608 1.64558 12.4916 2.81381C13.2643 3.83969 13.7356 5.06071 13.8526 6.3397C13.9696 7.61868 13.7277 8.90495 13.1539 10.054C12.5802 11.2031 11.6974 12.1694 10.6048 12.8444C9.51214 13.5194 8.25292 13.8763 6.9686 13.8751C5.47024 13.8797 4.01175 13.3926 2.81688 12.4885C1.64866 11.605 0.788863 10.3755 0.359849 8.97498C0.331757 8.88302 0.329149 8.78516 0.352305 8.69183C0.375461 8.59851 0.423512 8.51322 0.491334 8.44506ZM3.45571 11.6399C4.58093 12.4874 5.97444 12.8999 7.37969 12.8015C8.78494 12.7031 10.1074 12.1004 11.1035 11.1044C12.0996 10.1083 12.7024 8.78594 12.8009 7.38069C12.8995 5.97545 12.487 4.58191 11.6396 3.45662C11.0875 2.72752 10.3737 2.1365 9.55446 1.73006C9.60113 2.05759 9.62465 2.38801 9.62485 2.71885C9.62292 4.5499 8.89467 6.30541 7.59992 7.60017C6.30517 8.89492 4.54966 9.62316 2.7186 9.6251C2.38709 9.62499 2.05601 9.60147 1.72782 9.55471C2.13464 10.3741 2.72613 11.0879 3.45571 11.6399Z"
            fill="#155DA4" />
</svg>
