<svg width="14.000000" height="14.000000" viewBox="0 0 14 14" fill="none" xmlns="http://www.w3.org/2000/svg" xmlns:xlink="http://www.w3.org/1999/xlink">
	<desc>
			Created with Pixso.
	</desc>
	<defs/>
	<path id="Vector" d="M7 10.7915C4.90601 10.7915 3.20837 9.09399 3.20837 7C3.20837 4.90576 4.90601 3.20825 7 3.20825C9.09412 3.20825 10.7917 4.90576 10.7917 7C10.7917 9.09399 9.09412 10.7915 7 10.7915Z" stroke="#155DA4" stroke-opacity="1.000000" stroke-width="1.000000" stroke-linejoin="round"/>
	<path id="Vector" d="M11.1649 2.83496L11.0891 2.91089L11.1649 2.83496ZM2.91077 11.0894L2.83496 11.165L2.91077 11.0894ZM7 1.16675L7 1.21338L7 1.16675ZM7 12.7869L7 12.8335L7 12.7869ZM1.16663 7L1.21326 7L1.16663 7ZM12.7866 7L12.8333 7L12.7866 7ZM2.83496 2.83496L2.91077 2.91089L2.83496 2.83496ZM11.1649 11.165L11.0891 11.0894" stroke="#155DA4" stroke-opacity="1.000000" stroke-width="1.000000" stroke-linejoin="round" stroke-linecap="round"/>
	<g opacity="0.000000"/>
</svg>
